<mxfile host="app.diagrams.net" agent="Mozilla/5.0 (Windows NT 10.0; Win64; x64) AppleWebKit/537.36 (KHTML, like Gecko) Chrome/131.0.0.0 Safari/537.36 Edg/131.0.0.0" version="24.9.2">
  <diagram id="C5RBs43oDa-KdzZeNtuy" name="Page-1">
    <mxGraphModel grid="1" page="1" gridSize="10" guides="1" tooltips="1" connect="1" arrows="1" fold="1" pageScale="1" pageWidth="827" pageHeight="1169" math="0" shadow="0">
      <root>
        <mxCell id="WIyWlLk6GJQsqaUBKTNV-0" />
        <mxCell id="WIyWlLk6GJQsqaUBKTNV-1" parent="WIyWlLk6GJQsqaUBKTNV-0" />
        <mxCell id="FIb7yGq20nb4K3NcL7ku-0" value="Start" style="ellipse;whiteSpace=wrap;html=1;" vertex="1" parent="WIyWlLk6GJQsqaUBKTNV-1">
          <mxGeometry x="300" y="40" width="120" height="80" as="geometry" />
        </mxCell>
        <mxCell id="FIb7yGq20nb4K3NcL7ku-1" value="" style="endArrow=classic;html=1;rounded=0;exitX=0.5;exitY=1;exitDx=0;exitDy=0;" edge="1" parent="WIyWlLk6GJQsqaUBKTNV-1" source="FIb7yGq20nb4K3NcL7ku-0">
          <mxGeometry width="50" height="50" relative="1" as="geometry">
            <mxPoint x="390" y="320" as="sourcePoint" />
            <mxPoint x="360" y="160" as="targetPoint" />
          </mxGeometry>
        </mxCell>
        <mxCell id="FIb7yGq20nb4K3NcL7ku-2" value="Start LED detected by robot" style="shape=parallelogram;perimeter=parallelogramPerimeter;whiteSpace=wrap;html=1;fixedSize=1;" vertex="1" parent="WIyWlLk6GJQsqaUBKTNV-1">
          <mxGeometry x="300" y="160" width="120" height="60" as="geometry" />
        </mxCell>
        <mxCell id="FIb7yGq20nb4K3NcL7ku-3" value="" style="endArrow=classic;html=1;rounded=0;exitX=0.5;exitY=1;exitDx=0;exitDy=0;" edge="1" parent="WIyWlLk6GJQsqaUBKTNV-1" source="FIb7yGq20nb4K3NcL7ku-2">
          <mxGeometry width="50" height="50" relative="1" as="geometry">
            <mxPoint x="390" y="320" as="sourcePoint" />
            <mxPoint x="360" y="260" as="targetPoint" />
          </mxGeometry>
        </mxCell>
        <mxCell id="FIb7yGq20nb4K3NcL7ku-7" value="Camera begins sending image data to Jetson Nano" style="shape=parallelogram;perimeter=parallelogramPerimeter;whiteSpace=wrap;html=1;fixedSize=1;" vertex="1" parent="WIyWlLk6GJQsqaUBKTNV-1">
          <mxGeometry x="300" y="260" width="120" height="60" as="geometry" />
        </mxCell>
        <mxCell id="FIb7yGq20nb4K3NcL7ku-8" value="" style="endArrow=classic;html=1;rounded=0;exitX=0.5;exitY=1;exitDx=0;exitDy=0;" edge="1" parent="WIyWlLk6GJQsqaUBKTNV-1" source="FIb7yGq20nb4K3NcL7ku-7">
          <mxGeometry width="50" height="50" relative="1" as="geometry">
            <mxPoint x="380" y="220" as="sourcePoint" />
            <mxPoint x="360" y="360" as="targetPoint" />
          </mxGeometry>
        </mxCell>
        <mxCell id="FIb7yGq20nb4K3NcL7ku-9" value="In Jetson Nano the detection algorithms start" style="rounded=0;whiteSpace=wrap;html=1;" vertex="1" parent="WIyWlLk6GJQsqaUBKTNV-1">
          <mxGeometry x="300" y="360" width="120" height="60" as="geometry" />
        </mxCell>
        <mxCell id="FIb7yGq20nb4K3NcL7ku-10" value="" style="endArrow=none;html=1;rounded=0;exitX=0.5;exitY=1;exitDx=0;exitDy=0;" edge="1" parent="WIyWlLk6GJQsqaUBKTNV-1" source="FIb7yGq20nb4K3NcL7ku-9">
          <mxGeometry width="50" height="50" relative="1" as="geometry">
            <mxPoint x="380" y="420" as="sourcePoint" />
            <mxPoint x="360" y="460" as="targetPoint" />
          </mxGeometry>
        </mxCell>
        <mxCell id="FIb7yGq20nb4K3NcL7ku-12" value="Robot does the task of line detection" style="rounded=0;whiteSpace=wrap;html=1;" vertex="1" parent="WIyWlLk6GJQsqaUBKTNV-1">
          <mxGeometry x="500" y="510" width="120" height="60" as="geometry" />
        </mxCell>
        <mxCell id="FIb7yGq20nb4K3NcL7ku-13" value="Robot does the task of object detection" style="rounded=0;whiteSpace=wrap;html=1;" vertex="1" parent="WIyWlLk6GJQsqaUBKTNV-1">
          <mxGeometry x="100" y="510" width="120" height="60" as="geometry" />
        </mxCell>
        <mxCell id="FIb7yGq20nb4K3NcL7ku-15" value="" style="endArrow=classic;html=1;rounded=0;entryX=0.5;entryY=0;entryDx=0;entryDy=0;" edge="1" parent="WIyWlLk6GJQsqaUBKTNV-1" target="FIb7yGq20nb4K3NcL7ku-12">
          <mxGeometry width="50" height="50" relative="1" as="geometry">
            <mxPoint x="560" y="460" as="sourcePoint" />
            <mxPoint x="540" y="380" as="targetPoint" />
          </mxGeometry>
        </mxCell>
        <mxCell id="FIb7yGq20nb4K3NcL7ku-16" value="" style="endArrow=none;html=1;rounded=0;" edge="1" parent="WIyWlLk6GJQsqaUBKTNV-1">
          <mxGeometry width="50" height="50" relative="1" as="geometry">
            <mxPoint x="160" y="460" as="sourcePoint" />
            <mxPoint x="560" y="460" as="targetPoint" />
          </mxGeometry>
        </mxCell>
        <mxCell id="FIb7yGq20nb4K3NcL7ku-17" value="" style="endArrow=classic;html=1;rounded=0;exitX=0.5;exitY=1;exitDx=0;exitDy=0;" edge="1" parent="WIyWlLk6GJQsqaUBKTNV-1" source="FIb7yGq20nb4K3NcL7ku-13">
          <mxGeometry width="50" height="50" relative="1" as="geometry">
            <mxPoint x="270" y="610" as="sourcePoint" />
            <mxPoint x="160" y="610" as="targetPoint" />
          </mxGeometry>
        </mxCell>
        <mxCell id="FIb7yGq20nb4K3NcL7ku-18" value="" style="endArrow=classic;html=1;rounded=0;exitX=0.5;exitY=1;exitDx=0;exitDy=0;" edge="1" parent="WIyWlLk6GJQsqaUBKTNV-1" source="FIb7yGq20nb4K3NcL7ku-12">
          <mxGeometry width="50" height="50" relative="1" as="geometry">
            <mxPoint x="490" y="610" as="sourcePoint" />
            <mxPoint x="560" y="610" as="targetPoint" />
          </mxGeometry>
        </mxCell>
        <mxCell id="FIb7yGq20nb4K3NcL7ku-19" value="Are astral materials detected?" style="rhombus;whiteSpace=wrap;html=1;" vertex="1" parent="WIyWlLk6GJQsqaUBKTNV-1">
          <mxGeometry x="120" y="610" width="80" height="80" as="geometry" />
        </mxCell>
        <mxCell id="FIb7yGq20nb4K3NcL7ku-20" value="Are Lines detected?" style="rhombus;whiteSpace=wrap;html=1;" vertex="1" parent="WIyWlLk6GJQsqaUBKTNV-1">
          <mxGeometry x="520" y="610" width="80" height="80" as="geometry" />
        </mxCell>
        <mxCell id="FIb7yGq20nb4K3NcL7ku-21" value="" style="endArrow=none;html=1;rounded=0;exitX=0.5;exitY=1;exitDx=0;exitDy=0;" edge="1" parent="WIyWlLk6GJQsqaUBKTNV-1" source="FIb7yGq20nb4K3NcL7ku-19">
          <mxGeometry width="50" height="50" relative="1" as="geometry">
            <mxPoint x="270" y="610" as="sourcePoint" />
            <mxPoint x="160" y="840" as="targetPoint" />
          </mxGeometry>
        </mxCell>
        <mxCell id="FIb7yGq20nb4K3NcL7ku-22" value="" style="endArrow=none;html=1;rounded=0;exitX=0.5;exitY=1;exitDx=0;exitDy=0;" edge="1" parent="WIyWlLk6GJQsqaUBKTNV-1" source="FIb7yGq20nb4K3NcL7ku-20">
          <mxGeometry width="50" height="50" relative="1" as="geometry">
            <mxPoint x="490" y="610" as="sourcePoint" />
            <mxPoint x="560" y="840" as="targetPoint" />
          </mxGeometry>
        </mxCell>
        <mxCell id="FIb7yGq20nb4K3NcL7ku-24" value="Continue the task of object detection" style="rounded=0;whiteSpace=wrap;html=1;" vertex="1" parent="WIyWlLk6GJQsqaUBKTNV-1">
          <mxGeometry x="-60" y="710" width="120" height="60" as="geometry" />
        </mxCell>
        <mxCell id="FIb7yGq20nb4K3NcL7ku-26" value="" style="endArrow=classic;html=1;rounded=0;entryX=1;entryY=0.5;entryDx=0;entryDy=0;" edge="1" parent="WIyWlLk6GJQsqaUBKTNV-1">
          <mxGeometry width="50" height="50" relative="1" as="geometry">
            <mxPoint x="160" y="840" as="sourcePoint" />
            <mxPoint x="60" y="840" as="targetPoint" />
          </mxGeometry>
        </mxCell>
        <mxCell id="FIb7yGq20nb4K3NcL7ku-27" value="" style="endArrow=classic;html=1;rounded=0;entryX=1;entryY=0.5;entryDx=0;entryDy=0;" edge="1" parent="WIyWlLk6GJQsqaUBKTNV-1" target="FIb7yGq20nb4K3NcL7ku-24">
          <mxGeometry width="50" height="50" relative="1" as="geometry">
            <mxPoint x="160" y="740" as="sourcePoint" />
            <mxPoint x="320" y="760" as="targetPoint" />
          </mxGeometry>
        </mxCell>
        <mxCell id="FIb7yGq20nb4K3NcL7ku-28" value="" style="endArrow=classic;html=1;rounded=0;" edge="1" parent="WIyWlLk6GJQsqaUBKTNV-1">
          <mxGeometry width="50" height="50" relative="1" as="geometry">
            <mxPoint x="560" y="740" as="sourcePoint" />
            <mxPoint x="660" y="740" as="targetPoint" />
          </mxGeometry>
        </mxCell>
        <mxCell id="FIb7yGq20nb4K3NcL7ku-29" value="" style="endArrow=classic;html=1;rounded=0;" edge="1" parent="WIyWlLk6GJQsqaUBKTNV-1">
          <mxGeometry width="50" height="50" relative="1" as="geometry">
            <mxPoint x="560" y="840" as="sourcePoint" />
            <mxPoint x="660" y="840" as="targetPoint" />
          </mxGeometry>
        </mxCell>
        <mxCell id="FIb7yGq20nb4K3NcL7ku-31" value="Continue the task of line detection" style="rounded=0;whiteSpace=wrap;html=1;" vertex="1" parent="WIyWlLk6GJQsqaUBKTNV-1">
          <mxGeometry x="660" y="710" width="120" height="60" as="geometry" />
        </mxCell>
        <mxCell id="FIb7yGq20nb4K3NcL7ku-32" value="Yes" style="text;strokeColor=none;align=center;fillColor=none;html=1;verticalAlign=middle;whiteSpace=wrap;rounded=0;" vertex="1" parent="WIyWlLk6GJQsqaUBKTNV-1">
          <mxGeometry x="100" y="710" width="60" height="30" as="geometry" />
        </mxCell>
        <mxCell id="FIb7yGq20nb4K3NcL7ku-34" value="No" style="text;strokeColor=none;align=center;fillColor=none;html=1;verticalAlign=middle;whiteSpace=wrap;rounded=0;" vertex="1" parent="WIyWlLk6GJQsqaUBKTNV-1">
          <mxGeometry x="100" y="810" width="60" height="30" as="geometry" />
        </mxCell>
        <mxCell id="FIb7yGq20nb4K3NcL7ku-35" value="Yes" style="text;strokeColor=none;align=center;fillColor=none;html=1;verticalAlign=middle;whiteSpace=wrap;rounded=0;" vertex="1" parent="WIyWlLk6GJQsqaUBKTNV-1">
          <mxGeometry x="560" y="710" width="60" height="30" as="geometry" />
        </mxCell>
        <mxCell id="FIb7yGq20nb4K3NcL7ku-38" value="No" style="text;strokeColor=none;align=center;fillColor=none;html=1;verticalAlign=middle;whiteSpace=wrap;rounded=0;" vertex="1" parent="WIyWlLk6GJQsqaUBKTNV-1">
          <mxGeometry x="560" y="810" width="60" height="30" as="geometry" />
        </mxCell>
        <mxCell id="FIb7yGq20nb4K3NcL7ku-39" value="Tell Master Control no lines found ahead&amp;nbsp;" style="shape=parallelogram;perimeter=parallelogramPerimeter;whiteSpace=wrap;html=1;fixedSize=1;" vertex="1" parent="WIyWlLk6GJQsqaUBKTNV-1">
          <mxGeometry x="650" y="810" width="120" height="60" as="geometry" />
        </mxCell>
        <mxCell id="FIb7yGq20nb4K3NcL7ku-40" value="Tell Master Control no material found ahead" style="shape=parallelogram;perimeter=parallelogramPerimeter;whiteSpace=wrap;html=1;fixedSize=1;" vertex="1" parent="WIyWlLk6GJQsqaUBKTNV-1">
          <mxGeometry x="-50" y="810" width="120" height="60" as="geometry" />
        </mxCell>
        <mxCell id="FIb7yGq20nb4K3NcL7ku-41" value="" style="endArrow=classic;html=1;rounded=0;entryX=0.5;entryY=1;entryDx=0;entryDy=0;" edge="1" parent="WIyWlLk6GJQsqaUBKTNV-1" target="FIb7yGq20nb4K3NcL7ku-24">
          <mxGeometry width="50" height="50" relative="1" as="geometry">
            <mxPoint y="810" as="sourcePoint" />
            <mxPoint x="320" y="740" as="targetPoint" />
          </mxGeometry>
        </mxCell>
        <mxCell id="FIb7yGq20nb4K3NcL7ku-42" value="" style="endArrow=none;html=1;rounded=0;exitX=0.5;exitY=0;exitDx=0;exitDy=0;" edge="1" parent="WIyWlLk6GJQsqaUBKTNV-1" source="FIb7yGq20nb4K3NcL7ku-24">
          <mxGeometry width="50" height="50" relative="1" as="geometry">
            <mxPoint x="270" y="790" as="sourcePoint" />
            <mxPoint y="650" as="targetPoint" />
          </mxGeometry>
        </mxCell>
        <mxCell id="FIb7yGq20nb4K3NcL7ku-43" value="" style="endArrow=classic;html=1;rounded=0;entryX=0;entryY=0.5;entryDx=0;entryDy=0;" edge="1" parent="WIyWlLk6GJQsqaUBKTNV-1" target="FIb7yGq20nb4K3NcL7ku-19">
          <mxGeometry width="50" height="50" relative="1" as="geometry">
            <mxPoint y="650" as="sourcePoint" />
            <mxPoint x="320" y="740" as="targetPoint" />
          </mxGeometry>
        </mxCell>
        <mxCell id="FIb7yGq20nb4K3NcL7ku-44" value="" style="endArrow=classic;html=1;rounded=0;exitX=0;exitY=0.5;exitDx=0;exitDy=0;" edge="1" parent="WIyWlLk6GJQsqaUBKTNV-1" source="FIb7yGq20nb4K3NcL7ku-24">
          <mxGeometry width="50" height="50" relative="1" as="geometry">
            <mxPoint x="270" y="790" as="sourcePoint" />
            <mxPoint x="-100" y="740" as="targetPoint" />
          </mxGeometry>
        </mxCell>
        <mxCell id="FIb7yGq20nb4K3NcL7ku-45" value="Send locations of objects to Master Control" style="shape=parallelogram;perimeter=parallelogramPerimeter;whiteSpace=wrap;html=1;fixedSize=1;" vertex="1" parent="WIyWlLk6GJQsqaUBKTNV-1">
          <mxGeometry x="-210" y="710" width="120" height="60" as="geometry" />
        </mxCell>
        <mxCell id="FIb7yGq20nb4K3NcL7ku-46" value="" style="endArrow=classic;html=1;rounded=0;exitX=0.585;exitY=-0.033;exitDx=0;exitDy=0;exitPerimeter=0;entryX=0.5;entryY=1;entryDx=0;entryDy=0;" edge="1" parent="WIyWlLk6GJQsqaUBKTNV-1" source="FIb7yGq20nb4K3NcL7ku-39" target="FIb7yGq20nb4K3NcL7ku-31">
          <mxGeometry width="50" height="50" relative="1" as="geometry">
            <mxPoint x="490" y="780" as="sourcePoint" />
            <mxPoint x="540" y="730" as="targetPoint" />
          </mxGeometry>
        </mxCell>
        <mxCell id="FIb7yGq20nb4K3NcL7ku-47" value="" style="endArrow=none;html=1;rounded=0;exitX=0.5;exitY=0;exitDx=0;exitDy=0;" edge="1" parent="WIyWlLk6GJQsqaUBKTNV-1" source="FIb7yGq20nb4K3NcL7ku-31">
          <mxGeometry width="50" height="50" relative="1" as="geometry">
            <mxPoint x="490" y="780" as="sourcePoint" />
            <mxPoint x="720" y="650" as="targetPoint" />
          </mxGeometry>
        </mxCell>
        <mxCell id="FIb7yGq20nb4K3NcL7ku-48" value="" style="endArrow=classic;html=1;rounded=0;entryX=1;entryY=0.5;entryDx=0;entryDy=0;" edge="1" parent="WIyWlLk6GJQsqaUBKTNV-1" target="FIb7yGq20nb4K3NcL7ku-20">
          <mxGeometry width="50" height="50" relative="1" as="geometry">
            <mxPoint x="720" y="650" as="sourcePoint" />
            <mxPoint x="540" y="730" as="targetPoint" />
          </mxGeometry>
        </mxCell>
        <mxCell id="FIb7yGq20nb4K3NcL7ku-50" value="" style="endArrow=classic;html=1;rounded=0;exitX=1;exitY=0.5;exitDx=0;exitDy=0;" edge="1" parent="WIyWlLk6GJQsqaUBKTNV-1" source="FIb7yGq20nb4K3NcL7ku-31">
          <mxGeometry width="50" height="50" relative="1" as="geometry">
            <mxPoint x="490" y="780" as="sourcePoint" />
            <mxPoint x="820" y="740" as="targetPoint" />
          </mxGeometry>
        </mxCell>
        <mxCell id="FIb7yGq20nb4K3NcL7ku-52" value="Send locations of lines to Master Control" style="shape=parallelogram;perimeter=parallelogramPerimeter;whiteSpace=wrap;html=1;fixedSize=1;" vertex="1" parent="WIyWlLk6GJQsqaUBKTNV-1">
          <mxGeometry x="810" y="710" width="120" height="60" as="geometry" />
        </mxCell>
        <mxCell id="FIb7yGq20nb4K3NcL7ku-53" value="Timer fires an interrupt" style="shape=parallelogram;perimeter=parallelogramPerimeter;whiteSpace=wrap;html=1;fixedSize=1;" vertex="1" parent="WIyWlLk6GJQsqaUBKTNV-1">
          <mxGeometry x="-340" y="120" width="120" height="60" as="geometry" />
        </mxCell>
        <mxCell id="FIb7yGq20nb4K3NcL7ku-54" value="All astral material accounted for" style="shape=parallelogram;perimeter=parallelogramPerimeter;whiteSpace=wrap;html=1;fixedSize=1;" vertex="1" parent="WIyWlLk6GJQsqaUBKTNV-1">
          <mxGeometry x="-550" y="120" width="120" height="60" as="geometry" />
        </mxCell>
        <mxCell id="FIb7yGq20nb4K3NcL7ku-56" value="End detection algorithms&amp;nbsp;" style="rounded=0;whiteSpace=wrap;html=1;" vertex="1" parent="WIyWlLk6GJQsqaUBKTNV-1">
          <mxGeometry x="-450" y="260" width="120" height="60" as="geometry" />
        </mxCell>
        <mxCell id="FIb7yGq20nb4K3NcL7ku-57" value="" style="endArrow=none;html=1;rounded=0;exitX=0.5;exitY=1;exitDx=0;exitDy=0;" edge="1" parent="WIyWlLk6GJQsqaUBKTNV-1" source="FIb7yGq20nb4K3NcL7ku-54">
          <mxGeometry width="50" height="50" relative="1" as="geometry">
            <mxPoint x="-60" y="340" as="sourcePoint" />
            <mxPoint x="-490" y="220" as="targetPoint" />
          </mxGeometry>
        </mxCell>
        <mxCell id="FIb7yGq20nb4K3NcL7ku-58" value="" style="endArrow=none;html=1;rounded=0;exitX=0.5;exitY=1;exitDx=0;exitDy=0;" edge="1" parent="WIyWlLk6GJQsqaUBKTNV-1">
          <mxGeometry width="50" height="50" relative="1" as="geometry">
            <mxPoint x="-290" y="180" as="sourcePoint" />
            <mxPoint x="-290" y="220" as="targetPoint" />
          </mxGeometry>
        </mxCell>
        <mxCell id="FIb7yGq20nb4K3NcL7ku-59" value="" style="endArrow=none;html=1;rounded=0;" edge="1" parent="WIyWlLk6GJQsqaUBKTNV-1">
          <mxGeometry width="50" height="50" relative="1" as="geometry">
            <mxPoint x="-490" y="220" as="sourcePoint" />
            <mxPoint x="-290" y="220" as="targetPoint" />
          </mxGeometry>
        </mxCell>
        <mxCell id="FIb7yGq20nb4K3NcL7ku-60" value="" style="endArrow=classic;html=1;rounded=0;" edge="1" parent="WIyWlLk6GJQsqaUBKTNV-1" target="FIb7yGq20nb4K3NcL7ku-56">
          <mxGeometry width="50" height="50" relative="1" as="geometry">
            <mxPoint x="-390" y="220" as="sourcePoint" />
            <mxPoint x="-10" y="290" as="targetPoint" />
          </mxGeometry>
        </mxCell>
        <mxCell id="FIb7yGq20nb4K3NcL7ku-62" value="" style="endArrow=classic;html=1;rounded=0;exitX=0.5;exitY=1;exitDx=0;exitDy=0;" edge="1" parent="WIyWlLk6GJQsqaUBKTNV-1" source="FIb7yGq20nb4K3NcL7ku-56">
          <mxGeometry width="50" height="50" relative="1" as="geometry">
            <mxPoint x="-60" y="290" as="sourcePoint" />
            <mxPoint x="-390" y="360" as="targetPoint" />
          </mxGeometry>
        </mxCell>
        <mxCell id="FIb7yGq20nb4K3NcL7ku-63" value="Robot in position&amp;nbsp;" style="shape=parallelogram;perimeter=parallelogramPerimeter;whiteSpace=wrap;html=1;fixedSize=1;" vertex="1" parent="WIyWlLk6GJQsqaUBKTNV-1">
          <mxGeometry x="-450" y="360" width="120" height="60" as="geometry" />
        </mxCell>
        <mxCell id="FIb7yGq20nb4K3NcL7ku-64" value="" style="endArrow=classic;html=1;rounded=0;exitX=0.5;exitY=1;exitDx=0;exitDy=0;" edge="1" parent="WIyWlLk6GJQsqaUBKTNV-1" source="FIb7yGq20nb4K3NcL7ku-63">
          <mxGeometry width="50" height="50" relative="1" as="geometry">
            <mxPoint x="-60" y="290" as="sourcePoint" />
            <mxPoint x="-390" y="460" as="targetPoint" />
          </mxGeometry>
        </mxCell>
        <mxCell id="FIb7yGq20nb4K3NcL7ku-67" value="Send correct telemetry location to Master Control" style="shape=parallelogram;perimeter=parallelogramPerimeter;whiteSpace=wrap;html=1;fixedSize=1;" vertex="1" parent="WIyWlLk6GJQsqaUBKTNV-1">
          <mxGeometry x="-450" y="650" width="120" height="60" as="geometry" />
        </mxCell>
        <mxCell id="FIb7yGq20nb4K3NcL7ku-69" value="Robot does line detection along with april tag value&amp;nbsp;" style="rounded=0;whiteSpace=wrap;html=1;" vertex="1" parent="WIyWlLk6GJQsqaUBKTNV-1">
          <mxGeometry x="-450" y="550" width="120" height="60" as="geometry" />
        </mxCell>
        <mxCell id="FIb7yGq20nb4K3NcL7ku-70" value="" style="endArrow=classic;html=1;rounded=0;exitX=0.5;exitY=1;exitDx=0;exitDy=0;" edge="1" parent="WIyWlLk6GJQsqaUBKTNV-1" target="FIb7yGq20nb4K3NcL7ku-69">
          <mxGeometry width="50" height="50" relative="1" as="geometry">
            <mxPoint x="-390" y="520" as="sourcePoint" />
            <mxPoint x="-10" y="670" as="targetPoint" />
          </mxGeometry>
        </mxCell>
        <mxCell id="FIb7yGq20nb4K3NcL7ku-71" value="Robot reads april tag" style="shape=parallelogram;perimeter=parallelogramPerimeter;whiteSpace=wrap;html=1;fixedSize=1;" vertex="1" parent="WIyWlLk6GJQsqaUBKTNV-1">
          <mxGeometry x="-450" y="460" width="120" height="60" as="geometry" />
        </mxCell>
        <mxCell id="FIb7yGq20nb4K3NcL7ku-72" value="" style="endArrow=classic;html=1;rounded=0;exitX=0.5;exitY=1;exitDx=0;exitDy=0;entryX=0.5;entryY=0;entryDx=0;entryDy=0;" edge="1" parent="WIyWlLk6GJQsqaUBKTNV-1" source="FIb7yGq20nb4K3NcL7ku-69" target="FIb7yGq20nb4K3NcL7ku-67">
          <mxGeometry width="50" height="50" relative="1" as="geometry">
            <mxPoint x="-60" y="650" as="sourcePoint" />
            <mxPoint x="-10" y="600" as="targetPoint" />
          </mxGeometry>
        </mxCell>
        <mxCell id="FIb7yGq20nb4K3NcL7ku-73" value="" style="endArrow=classic;html=1;rounded=0;exitX=0.5;exitY=1;exitDx=0;exitDy=0;" edge="1" parent="WIyWlLk6GJQsqaUBKTNV-1" source="FIb7yGq20nb4K3NcL7ku-67">
          <mxGeometry width="50" height="50" relative="1" as="geometry">
            <mxPoint x="-60" y="650" as="sourcePoint" />
            <mxPoint x="-390" y="750" as="targetPoint" />
          </mxGeometry>
        </mxCell>
        <mxCell id="FIb7yGq20nb4K3NcL7ku-74" value="End" style="ellipse;whiteSpace=wrap;html=1;" vertex="1" parent="WIyWlLk6GJQsqaUBKTNV-1">
          <mxGeometry x="-450" y="750" width="120" height="80" as="geometry" />
        </mxCell>
        <mxCell id="Yg2Dw-AINT6oeqm-OeDd-2" value="The robot does the task of image processing" style="rounded=0;whiteSpace=wrap;html=1;" vertex="1" parent="WIyWlLk6GJQsqaUBKTNV-1">
          <mxGeometry x="300" y="510" width="120" height="60" as="geometry" />
        </mxCell>
        <mxCell id="Yg2Dw-AINT6oeqm-OeDd-3" value="" style="endArrow=classic;html=1;rounded=0;entryX=0.5;entryY=0;entryDx=0;entryDy=0;" edge="1" parent="WIyWlLk6GJQsqaUBKTNV-1" target="Yg2Dw-AINT6oeqm-OeDd-2">
          <mxGeometry width="50" height="50" relative="1" as="geometry">
            <mxPoint x="360" y="460" as="sourcePoint" />
            <mxPoint x="350" y="640" as="targetPoint" />
          </mxGeometry>
        </mxCell>
        <mxCell id="Yg2Dw-AINT6oeqm-OeDd-4" value="" style="endArrow=classic;html=1;rounded=0;entryX=0.5;entryY=0;entryDx=0;entryDy=0;" edge="1" parent="WIyWlLk6GJQsqaUBKTNV-1" target="FIb7yGq20nb4K3NcL7ku-13">
          <mxGeometry width="50" height="50" relative="1" as="geometry">
            <mxPoint x="160" y="460" as="sourcePoint" />
            <mxPoint x="350" y="640" as="targetPoint" />
          </mxGeometry>
        </mxCell>
        <mxCell id="Yg2Dw-AINT6oeqm-OeDd-5" value="Is the robot too close to a wall" style="rhombus;whiteSpace=wrap;html=1;" vertex="1" parent="WIyWlLk6GJQsqaUBKTNV-1">
          <mxGeometry x="320" y="610" width="80" height="80" as="geometry" />
        </mxCell>
        <mxCell id="Yg2Dw-AINT6oeqm-OeDd-6" value="" style="endArrow=classic;html=1;rounded=0;exitX=0.5;exitY=1;exitDx=0;exitDy=0;" edge="1" parent="WIyWlLk6GJQsqaUBKTNV-1" source="Yg2Dw-AINT6oeqm-OeDd-2" target="Yg2Dw-AINT6oeqm-OeDd-5">
          <mxGeometry width="50" height="50" relative="1" as="geometry">
            <mxPoint x="300" y="690" as="sourcePoint" />
            <mxPoint x="350" y="640" as="targetPoint" />
          </mxGeometry>
        </mxCell>
        <mxCell id="Yg2Dw-AINT6oeqm-OeDd-7" value="" style="endArrow=none;html=1;rounded=0;" edge="1" parent="WIyWlLk6GJQsqaUBKTNV-1">
          <mxGeometry width="50" height="50" relative="1" as="geometry">
            <mxPoint x="300" y="690" as="sourcePoint" />
            <mxPoint x="420" y="690" as="targetPoint" />
          </mxGeometry>
        </mxCell>
        <mxCell id="Yg2Dw-AINT6oeqm-OeDd-16" style="edgeStyle=orthogonalEdgeStyle;rounded=0;orthogonalLoop=1;jettySize=auto;html=1;exitX=1;exitY=0.5;exitDx=0;exitDy=0;entryX=1;entryY=0.5;entryDx=0;entryDy=0;" edge="1" parent="WIyWlLk6GJQsqaUBKTNV-1" source="Yg2Dw-AINT6oeqm-OeDd-8" target="Yg2Dw-AINT6oeqm-OeDd-5">
          <mxGeometry relative="1" as="geometry" />
        </mxCell>
        <mxCell id="Yg2Dw-AINT6oeqm-OeDd-8" value="Tell Master Control the robot is not too close to a wall" style="shape=parallelogram;perimeter=parallelogramPerimeter;whiteSpace=wrap;html=1;fixedSize=1;" vertex="1" parent="WIyWlLk6GJQsqaUBKTNV-1">
          <mxGeometry x="360" y="720" width="120" height="60" as="geometry" />
        </mxCell>
        <mxCell id="Yg2Dw-AINT6oeqm-OeDd-15" style="edgeStyle=orthogonalEdgeStyle;rounded=0;orthogonalLoop=1;jettySize=auto;html=1;exitX=0;exitY=0.5;exitDx=0;exitDy=0;entryX=0;entryY=0.5;entryDx=0;entryDy=0;" edge="1" parent="WIyWlLk6GJQsqaUBKTNV-1" source="Yg2Dw-AINT6oeqm-OeDd-9" target="Yg2Dw-AINT6oeqm-OeDd-5">
          <mxGeometry relative="1" as="geometry" />
        </mxCell>
        <mxCell id="Yg2Dw-AINT6oeqm-OeDd-9" value="Tell Master Control the robot is too close to a wall" style="shape=parallelogram;perimeter=parallelogramPerimeter;whiteSpace=wrap;html=1;fixedSize=1;" vertex="1" parent="WIyWlLk6GJQsqaUBKTNV-1">
          <mxGeometry x="240" y="720" width="120" height="60" as="geometry" />
        </mxCell>
        <mxCell id="Yg2Dw-AINT6oeqm-OeDd-10" value="" style="endArrow=classic;html=1;rounded=0;" edge="1" parent="WIyWlLk6GJQsqaUBKTNV-1" target="Yg2Dw-AINT6oeqm-OeDd-9">
          <mxGeometry width="50" height="50" relative="1" as="geometry">
            <mxPoint x="300" y="690" as="sourcePoint" />
            <mxPoint x="350" y="570" as="targetPoint" />
          </mxGeometry>
        </mxCell>
        <mxCell id="Yg2Dw-AINT6oeqm-OeDd-11" value="" style="endArrow=classic;html=1;rounded=0;entryX=0.5;entryY=0;entryDx=0;entryDy=0;" edge="1" parent="WIyWlLk6GJQsqaUBKTNV-1" target="Yg2Dw-AINT6oeqm-OeDd-8">
          <mxGeometry width="50" height="50" relative="1" as="geometry">
            <mxPoint x="420" y="690" as="sourcePoint" />
            <mxPoint x="350" y="570" as="targetPoint" />
          </mxGeometry>
        </mxCell>
        <mxCell id="Yg2Dw-AINT6oeqm-OeDd-12" value="Yes" style="text;strokeColor=none;align=center;fillColor=none;html=1;verticalAlign=middle;whiteSpace=wrap;rounded=0;" vertex="1" parent="WIyWlLk6GJQsqaUBKTNV-1">
          <mxGeometry x="280" y="665" width="60" height="30" as="geometry" />
        </mxCell>
        <mxCell id="Yg2Dw-AINT6oeqm-OeDd-13" value="No" style="text;strokeColor=none;align=center;fillColor=none;html=1;verticalAlign=middle;whiteSpace=wrap;rounded=0;" vertex="1" parent="WIyWlLk6GJQsqaUBKTNV-1">
          <mxGeometry x="384" y="665" width="60" height="30" as="geometry" />
        </mxCell>
      </root>
    </mxGraphModel>
  </diagram>
</mxfile>
